<svg width="259" height="281" viewBox="0 0 259 281" fill="none" xmlns="http://www.w3.org/2000/svg">
<path d="M13.9867 33.359C11.0167 31.7039 7.44593 33.5443 6.83463 36.8891C6.28934 39.8726 8.38758 42.7686 11.2813 43.6771C14.2312 44.6031 18.0592 46.1662 21.9449 48.7612C27.6618 52.5793 34.8775 59.2856 37.9721 62.2454C38.8466 63.0818 40.2062 63.143 41.1461 62.3807C42.1269 61.5853 42.3149 60.1684 41.5525 59.1617C38.7936 55.5185 32.291 47.197 26.8374 42.2503C22.8374 38.6221 17.8284 35.5 13.9867 33.359Z" fill="#292929"/>
<path d="M36.3214 5.97782C34.7069 3.43432 31.3251 2.78705 28.8306 4.47617C26.0697 6.3456 25.5974 10.238 27.75 12.7842C31.2256 16.8953 36.075 22.9462 39.0168 27.9649C42.4932 33.8958 46.057 43.0795 47.5489 47.0933C47.9705 48.2277 49.1669 48.8763 50.3453 48.6008C51.575 48.3134 52.3627 47.1208 52.1164 45.8823C51.2248 41.4001 49.0077 31.0746 46.2609 24.2433C43.8462 18.2375 39.323 10.7067 36.3214 5.97782Z" fill="#292929"/>
<path d="M215.653 259.848C216.551 263.127 213.911 266.155 210.517 265.949C207.489 265.766 205.179 263.036 204.988 260.009C204.793 256.924 204.19 252.833 202.599 248.44C200.257 241.976 195.469 233.367 193.335 229.655C192.732 228.606 192.997 227.271 193.962 226.541C194.969 225.778 196.389 225.934 197.185 226.915C200.063 230.465 206.59 238.767 210.09 245.245C212.658 249.996 214.492 255.606 215.653 259.848Z" fill="#292929"/>
<path d="M247.578 244.702C249.662 246.878 249.483 250.316 247.246 252.335C244.771 254.569 240.879 254.098 238.921 251.399C235.759 247.042 231.042 240.887 226.872 236.831C221.943 232.039 213.877 226.384 210.336 223.976C209.336 223.296 208.992 221.979 209.541 220.9C210.114 219.775 211.46 219.295 212.604 219.83C216.743 221.767 226.24 226.387 232.217 230.686C237.471 234.466 243.703 240.658 247.578 244.702Z" fill="#292929"/>
</svg>
