<svg width="156" height="220" viewBox="0 0 56 220" fill="none" xmlns="http://www.w3.org/2000/svg">
<path d="M25.0596 203.668C25.4997 205.944 23.5477 207.865 21.2512 207.549C19.2027 207.268 17.7735 205.292 17.8008 203.225C17.8287 201.117 17.6309 198.305 16.7769 195.236C15.5205 190.721 12.7122 184.62 11.4536 181.986C11.0979 181.241 11.3476 180.348 12.0413 179.901C12.7653 179.435 13.723 179.615 14.2128 180.323C15.9855 182.885 19.9917 188.868 22.0352 193.453C23.5341 196.816 24.4904 200.724 25.0596 203.668Z" fill="#292929"/>
<path d="M47.5472 195.028C48.8511 196.615 48.5507 198.943 46.9258 200.2C45.1274 201.59 42.5058 201.068 41.3146 199.132C39.3914 196.006 36.5041 191.577 33.8794 188.604C30.7777 185.09 25.5877 180.827 23.3053 179.007C22.6603 178.492 22.4948 177.58 22.924 176.875C23.3718 176.14 24.3119 175.883 25.0617 176.306C27.7751 177.837 33.9913 181.471 37.8315 184.704C41.2076 187.546 45.1229 192.078 47.5472 195.028Z" fill="#292929"/>
<path d="M33.2016 22.743C35.2265 21.6145 37.661 22.8693 38.0777 25.1496C38.4495 27.1837 37.019 29.1581 35.0461 29.7775C33.035 30.4089 30.4251 31.4745 27.776 33.2437C23.8783 35.8468 18.9589 40.419 16.8491 42.4368C16.2529 43.0071 15.326 43.0488 14.6852 42.5291C14.0165 41.9868 13.8883 41.0209 14.408 40.3345C16.289 37.8507 20.7223 32.1773 24.4404 28.8048C27.1675 26.3311 30.5825 24.2026 33.2016 22.743Z" fill="#292929"/>
<path d="M17.9746 4.07541C19.0753 2.34132 21.3809 1.90002 23.0816 3.05162C24.9638 4.32614 25.2859 6.97986 23.8183 8.71579C21.4487 11.5186 18.1425 15.644 16.1369 19.0656C13.7668 23.1091 11.337 29.3703 10.3199 32.1068C10.0325 32.8802 9.21682 33.3224 8.41343 33.1346C7.57506 32.9386 7.03801 32.1256 7.20597 31.2811C7.81379 28.2253 9.32539 21.1857 11.1981 16.5283C12.8444 12.4337 15.9281 7.29945 17.9746 4.07541Z" fill="#292929"/>
</svg>
