<svg width="1400" height="1068" viewBox="0 0 1400 1068" fill="none" xmlns="http://www.w3.org/2000/svg">
<path d="M613.722 776.982C581.084 759.165 543.26 770.884 519.524 785.681C502.299 796.418 484.102 813.517 461.582 804.154C441.169 795.668 426.556 773.286 429.626 734.587C441.239 587.938 316.132 584.44 280.975 584.998C181.269 586.58 158.786 545.764 186.323 497.323C266.981 355.419 25.156 197.857 -144.47 337.059C-258.271 430.455 -299.909 407.875 -320.705 349.375C-341.5 290.876 -403.741 217.676 -530.41 230.289C-631.746 240.379 -690.095 329.137 -706.607 372.253L-804.604 574.523C-822.483 611.425 -798.855 659.81 -751.831 682.593L588.32 1331.88C603.457 1339.21 616.398 1349.89 628.456 1361.01C745.495 1468.97 1040.98 1482.14 1151.39 1428.9C1214.43 1398.5 1228.87 1247.21 1234.95 1181.3C1246.59 1055.03 1101.45 897.21 1000.31 858.629C866.589 816.417 829.733 899.737 742.206 920.836C713.879 923.868 689.438 907.094 679.378 870.267C659.854 798.802 644.856 793.979 613.722 776.982Z" fill="#FFAD05"/>
</svg>
